<?xml version="1.0" encoding="UTF-8" standalone="no"?>
<svg
   xmlns:dc="http://purl.org/dc/elements/1.1/"
   xmlns:cc="http://creativecommons.org/ns#"
   xmlns:rdf="http://www.w3.org/1999/02/22-rdf-syntax-ns#"
   xmlns:svg="http://www.w3.org/2000/svg"
   xmlns="http://www.w3.org/2000/svg"
   xmlns:sodipodi="http://sodipodi.sourceforge.net/DTD/sodipodi-0.dtd"
   xmlns:inkscape="http://www.inkscape.org/namespaces/inkscape"
   viewBox="0 0 10.819501 11.64167"
   version="1.1"
   x="0px"
   y="0px"
   id="svg10"
   sodipodi:docname="noun_league table_2304050.svg"
   width="10.819501"
   height="11.64167"
   inkscape:version="1.0.1 (0767f8302a, 2020-10-17)">
  <metadata
     id="metadata16">
    <rdf:RDF>
      <cc:Work
         rdf:about="">
        <dc:format>image/svg+xml</dc:format>
        <dc:type
           rdf:resource="http://purl.org/dc/dcmitype/StillImage" />
      </cc:Work>
    </rdf:RDF>
  </metadata>
  <defs
     id="defs14" />
  <sodipodi:namedview
     pagecolor="#ffffff"
     bordercolor="#666666"
     borderopacity="1"
     objecttolerance="10"
     gridtolerance="10"
     guidetolerance="10"
     inkscape:pageopacity="0"
     inkscape:pageshadow="2"
     inkscape:window-width="1920"
     inkscape:window-height="1026"
     id="namedview12"
     showgrid="false"
     inkscape:zoom="19.108586"
     inkscape:cx="18.798416"
     inkscape:cy="14.678569"
     inkscape:window-x="0"
     inkscape:window-y="28"
     inkscape:window-maximized="1"
     inkscape:current-layer="svg10" />
  <g
     transform="translate(-0.94025137,-284.82914)"
     id="g4">
    <path
       d="m 1.0865132,284.82914 a 0.14604431,0.14604431 0 0 0 -0.14626168,0.14625 v 0.9064 a 0.14604431,0.14604431 0 0 0 0.14626168,0.14625 h 1.2014729 a 0.14604431,0.14604431 0 0 0 0.1457325,-0.14625 v -0.38033 h 0.6578335 v 1.38802 H 2.4337186 v -0.38033 A 0.14604431,0.14604431 0 0 0 2.2879861,286.3629 H 1.0865132 a 0.14604431,0.14604431 0 0 0 -0.14626168,0.14625 v 0.9064 a 0.14604431,0.14604431 0 0 0 0.14626168,0.14624 h 1.2014729 a 0.14604431,0.14604431 0 0 0 0.1457325,-0.14624 v -0.38034 h 0.803566 v -0.76688 h 0.7916863 v 0.38034 a 0.14604431,0.14604431 0 0 0 0.1462352,0.14625 H 5.376679 a 0.14604431,0.14604431 0 0 0 0.1457325,-0.14625 v -0.38034 h 0.6573308 v 2.82464 H 5.5224115 v -0.37982 A 0.14604431,0.14604431 0 0 0 5.376679,288.5669 H 4.1752061 a 0.14604431,0.14604431 0 0 0 -0.1462352,0.14625 v 0.37982 H 3.2372846 v -0.76688 h -0.803566 v -0.37982 A 0.14604431,0.14604431 0 0 0 2.2879861,287.80002 H 1.0865132 a 0.14604431,0.14604431 0 0 0 -0.14626168,0.14625 v 0.9064 a 0.14604431,0.14604431 0 0 0 0.14626168,0.14625 h 1.2014729 a 0.14604431,0.14604431 0 0 0 0.1457325,-0.14625 v -0.38034 h 0.6578335 v 1.38751 H 2.4337186 v -0.37982 A 0.14604431,0.14604431 0 0 0 2.2879861,289.33378 H 1.0865132 a 0.14604431,0.14604431 0 0 0 -0.14626168,0.14624 v 0.90641 a 0.14604431,0.14604431 0 0 0 0.14626168,0.14573 h 1.2014729 a 0.14604431,0.14604431 0 0 0 0.1457325,-0.14573 v -0.38034 h 0.803566 v -0.76688 h 0.7916863 v 0.38034 a 0.14604431,0.14604431 0 0 0 0.1462352,0.14573 H 5.376679 a 0.14604431,0.14604431 0 0 0 0.1457325,-0.14573 v -0.38034 h 0.803566 v -1.4981 h 0.7167562 v 0.38034 a 0.14604431,0.14604431 0 0 0 0.1457325,0.14624 h 1.2014729 a 0.14604431,0.14604431 0 0 0 0.1462352,-0.14624 v -0.38034 h 0.7214129 v 5.79241 H 8.5361743 V 293.1537 A 0.14604431,0.14604431 0 0 0 8.3899391,293.00746 H 7.1884662 a 0.14604431,0.14604431 0 0 0 -0.1457325,0.14624 v 0.37982 H 6.3259775 v -1.47278 h -0.803566 v -0.37982 A 0.14604431,0.14604431 0 0 0 5.376679,291.53468 H 4.1752061 a 0.14604431,0.14604431 0 0 0 -0.1462352,0.14624 v 0.37982 H 3.2372846 v -0.76636 h -0.803566 v -0.38033 A 0.14604431,0.14604431 0 0 0 2.2879861,290.7678 H 1.0865132 a 0.14604431,0.14604431 0 0 0 -0.14626168,0.14625 v 0.9064 a 0.14604431,0.14604431 0 0 0 0.14626168,0.14624 h 1.2014729 a 0.14604431,0.14604431 0 0 0 0.1457325,-0.14624 v -0.38034 h 0.6578335 v 1.38751 H 2.4337186 V 292.4478 A 0.14604431,0.14604431 0 0 0 2.2879861,292.30156 H 1.0865132 a 0.14604431,0.14604431 0 0 0 -0.14626168,0.14624 v 0.9064 a 0.14604431,0.14604431 0 0 0 0.14626168,0.14625 h 1.2014729 a 0.14604431,0.14604431 0 0 0 0.1457325,-0.14625 v -0.38033 h 0.803566 v -0.76688 h 0.7916863 v 0.38034 a 0.14604431,0.14604431 0 0 0 0.1462352,0.14624 H 5.376679 a 0.14604431,0.14604431 0 0 0 0.1457325,-0.14624 v -0.38034 h 0.6573308 v 2.82463 H 5.5224115 v -0.38034 A 0.14604431,0.14604431 0 0 0 5.376679,294.50556 H 4.1752061 a 0.14604431,0.14604431 0 0 0 -0.1462352,0.14572 v 0.38034 H 3.2372846 v -0.76688 h -0.803566 v -0.38033 A 0.14604431,0.14604431 0 0 0 2.2879861,293.73868 H 1.0865132 a 0.14604431,0.14604431 0 0 0 -0.14626168,0.14573 v 0.90692 a 0.14604431,0.14604431 0 0 0 0.14626168,0.14572 h 1.2014729 a 0.14604431,0.14604431 0 0 0 0.1457325,-0.14572 v -0.38034 h 0.6578335 v 1.38751 H 2.4337186 v -0.38034 A 0.14604431,0.14604431 0 0 0 2.2879861,295.27243 H 1.0865132 a 0.14604431,0.14604431 0 0 0 -0.14626168,0.14573 v 0.90692 a 0.14604431,0.14604431 0 0 0 0.14626168,0.14573 h 1.2014729 a 0.14604431,0.14604431 0 0 0 0.1457325,-0.14573 v -0.38033 h 0.803566 v -0.76688 h 0.7916863 v 0.38034 a 0.14604431,0.14604431 0 0 0 0.1462352,0.14572 H 5.376679 a 0.14604431,0.14604431 0 0 0 0.1457325,-0.14572 v -0.38034 h 0.803566 v -1.4981 h 0.7167562 v 0.38034 a 0.14604431,0.14604431 0 0 0 0.1457325,0.14624 h 1.2014729 a 0.14604431,0.14604431 0 0 0 0.1462352,-0.14624 v -0.38034 h 0.8671454 v -2.98173 h 0.8629913 v 0.38034 a 0.14604431,0.14604431 0 0 0 0.146235,0.14572 h 1.200971 a 0.14604431,0.14604431 0 0 0 0.146235,-0.14572 v -0.90692 a 0.14604431,0.14604431 0 0 0 -0.146235,-0.14573 h -1.200971 a 0.14604431,0.14604431 0 0 0 -0.146235,0.14573 v 0.38033 H 9.4033197 v -2.95641 H 8.5361743 v -0.38033 A 0.14604431,0.14604431 0 0 0 8.3899391,287.0688 H 7.1884662 a 0.14604431,0.14604431 0 0 0 -0.1457325,0.14625 v 0.38033 H 6.3259775 v -1.47277 h -0.803566 v -0.38034 A 0.14604431,0.14604431 0 0 0 5.376679,285.59602 H 4.1752061 a 0.14604431,0.14604431 0 0 0 -0.1462352,0.14625 v 0.38034 H 3.2372846 v -0.76688 h -0.803566 v -0.38034 a 0.14604431,0.14604431 0 0 0 -0.1457325,-0.14625 z m 0,0.14625 h 1.2014729 v 0.9064 H 1.0865132 Z m 3.0886929,0.76688 H 5.376679 v 0.9064 H 4.1752061 Z m -3.0886929,0.76688 h 1.2014729 v 0.9064 H 1.0865132 Z m 6.101953,0.7059 h 1.2014729 v 0.9064 H 7.1884662 Z m -6.101953,0.73122 h 1.2014729 v 0.9064 H 1.0865132 Z m 3.0886929,0.76688 H 5.376679 v 0.9064 H 4.1752061 Z m -3.0886929,0.76687 h 1.2014729 v 0.90641 H 1.0865132 Z m 9.3260328,0.69144 h 1.200971 v 0.90692 h -1.200971 z m -9.3260328,0.74259 h 1.2014729 v 0.9064 H 1.0865132 Z m 3.0886929,0.76687 H 5.376679 v 0.90641 H 4.1752061 Z m -3.0886929,0.76688 h 1.2014729 v 0.9064 H 1.0865132 Z m 6.101953,0.7059 h 1.2014729 v 0.90641 H 7.1884662 Z m -6.101953,0.73071 h 1.2014729 v 0.90692 H 1.0865132 Z m 3.0886929,0.76687 H 5.376679 v 0.90693 H 4.1752061 Z m -3.0886929,0.76688 h 1.2014729 v 0.90692 H 1.0865132 Z"
       fill="#000000"
       stroke="none"
       id="path2" />
  </g>
</svg>
