<?xml version="1.0" encoding="UTF-8" standalone="no"?>
<svg
   xmlns:dc="http://purl.org/dc/elements/1.1/"
   xmlns:cc="http://creativecommons.org/ns#"
   xmlns:rdf="http://www.w3.org/1999/02/22-rdf-syntax-ns#"
   xmlns:svg="http://www.w3.org/2000/svg"
   xmlns="http://www.w3.org/2000/svg"
   xmlns:sodipodi="http://sodipodi.sourceforge.net/DTD/sodipodi-0.dtd"
   xmlns:inkscape="http://www.inkscape.org/namespaces/inkscape"
   version="1.1"
   x="0px"
   y="0px"
   viewBox="0 0 24 16"
   xml:space="preserve"
   id="svg32"
   sodipodi:docname="runden_turnier.svg"
   width="24"
   height="16"
   inkscape:version="1.0.1 (0767f8302a, 2020-10-17)"><metadata
     id="metadata38"><rdf:RDF><cc:Work
         rdf:about=""><dc:format>image/svg+xml</dc:format><dc:type
           rdf:resource="http://purl.org/dc/dcmitype/StillImage" /><dc:title></dc:title></cc:Work></rdf:RDF></metadata><defs
     id="defs36" /><sodipodi:namedview
     pagecolor="#ffffff"
     bordercolor="#666666"
     borderopacity="1"
     objecttolerance="10"
     gridtolerance="10"
     guidetolerance="10"
     inkscape:pageopacity="0"
     inkscape:pageshadow="2"
     inkscape:window-width="1920"
     inkscape:window-height="1026"
     id="namedview34"
     showgrid="false"
     inkscape:zoom="28.6"
     inkscape:cx="10.239095"
     inkscape:cy="6.7681667"
     inkscape:window-x="0"
     inkscape:window-y="28"
     inkscape:window-maximized="1"
     inkscape:current-layer="g26"
     inkscape:document-rotation="0" /><g
     id="g26"
     transform="translate(0,-4)"><g
       id="g4"><path
         id="path2"
         sodipodi:type="inkscape:offset"
         inkscape:radius="-0.31928897"
         inkscape:original="M 0.5 4 C 0.224 4 0 4.224 0 4.5 L 0 19.5 C 0 19.776 0.224 20 0.5 20 L 23.5 20 C 23.776 20 24 19.776 24 19.5 L 24 4.5 C 24 4.224 23.776 4 23.5 4 L 0.5 4 z M 1 5 L 23 5 L 23 19 L 1 19 L 1 5 z "
         d="m 0.5,4.3183594 c -0.10324462,0 -0.18164063,0.078396 -0.18164062,0.1816406 v 15 c 0,0.103245 0.078396,0.181641 0.18164062,0.181641 h 23 c 0.103245,0 0.181641,-0.0784 0.181641,-0.181641 v -15 c 0,-0.1032446 -0.0784,-0.1816406 -0.181641,-0.1816406 z M 0.97460938,4.6816406 A 0.3193209,0.3193209 0 0 1 1,4.6816406 H 23 A 0.3193209,0.3193209 0 0 1 23.318359,5 V 19 A 0.3193209,0.3193209 0 0 1 23,19.318359 H 1 A 0.3193209,0.3193209 0 0 1 0.68164062,19 V 5 A 0.3193209,0.3193209 0 0 1 0.97460938,4.6816406 Z" /></g><g
       id="g8"><path
         id="path6"
         sodipodi:type="inkscape:offset"
         inkscape:radius="-0.32341012"
         inkscape:original="M 0.5 7 C 0.224 7 0 7.224 0 7.5 C 0 7.776 0.224 8 0.5 8 L 23.5 8 C 23.776 8 24 7.776 24 7.5 C 24 7.224 23.776 7 23.5 7 L 0.5 7 z "
         d="m 0.5,7.3242188 c -0.10101481,0 -0.17578125,0.074766 -0.17578125,0.1757812 0,0.1010148 0.0747664,0.1757812 0.17578125,0.1757812 h 23 c 0.101015,0 0.175781,-0.074766 0.175781,-0.1757812 0,-0.1010148 -0.07477,-0.1757813 -0.175781,-0.1757812 z" /></g><g
       id="g12"><path
         id="path10"
         sodipodi:type="inkscape:offset"
         inkscape:radius="-0.31078556"
         inkscape:original="M 0.5 11 C 0.224 11 0 11.224 0 11.5 C 0 11.776 0.224 12 0.5 12 L 23.5 12 C 23.776 12 24 11.776 24 11.5 C 24 11.224 23.776 11 23.5 11 L 0.5 11 z "
         d="m 0.5,11.310547 c -0.10784549,0 -0.18945312,0.08161 -0.18945312,0.189453 0,0.107845 0.0816076,0.189453 0.18945312,0.189453 h 23 c 0.107845,0 0.189453,-0.08161 0.189453,-0.189453 0,-0.107845 -0.08161,-0.189453 -0.189453,-0.189453 z" /></g><g
       id="g16"><path
         id="path14"
         sodipodi:type="inkscape:offset"
         inkscape:radius="-0.3309651"
         inkscape:original="M 0.5 15 C 0.224 15 0 15.224 0 15.5 C 0 15.776 0.224 16 0.5 16 L 23.5 16 C 23.776 16 24 15.776 24 15.5 C 24 15.224 23.776 15 23.5 15 L 0.5 15 z "
         d="m 0.5,15.330078 c -0.0969271,0 -0.16992188,0.07299 -0.16992188,0.169922 0,0.09693 0.0729948,0.169922 0.16992188,0.169922 h 23 c 0.09693,0 0.169922,-0.07299 0.169922,-0.169922 0,-0.09693 -0.07299,-0.169922 -0.169922,-0.169922 z" /></g><g
       id="g20"
       transform="matrix(1,0,0,0.97372702,0,0.35558529)"><path
         id="path18"
         sodipodi:type="inkscape:offset"
         inkscape:radius="-0.30819753"
         inkscape:original="M 8.5429688 7 C 8.2669688 7 8.0429688 7.224 8.0429688 7.5 L 8.0429688 19.5 C 8.0429688 19.776 8.2669688 20 8.5429688 20 C 8.8189687 20 9.0429688 19.776 9.0429688 19.5 L 9.0429688 7.5 C 9.0429688 7.224 8.8189687 7 8.5429688 7 z "
         d="m 8.5429688,7.3085938 c -0.1092458,0 -0.1914063,0.08216 -0.1914063,0.1914062 v 12 c 0,0.109246 0.082161,0.191406 0.1914063,0.191406 0.1092456,0 0.1914062,-0.08216 0.1914062,-0.191406 v -12 c 0,-0.1092457 -0.082161,-0.1914062 -0.1914062,-0.1914062 z" /></g><g
       id="g24"
       transform="matrix(1,0,0,0.98173342,0,0.13632533)"><path
         id="path22"
         sodipodi:type="inkscape:offset"
         inkscape:radius="-0.28155404"
         inkscape:original="M 15.5 7.5 C 15.224 7.5 15 7.724 15 8 L 15 19.5 C 15 19.776 15.224 20 15.5 20 C 15.776 20 16 19.776 16 19.5 L 16 8 C 16 7.724 15.776 7.5 15.5 7.5 z "
         d="m 15.5,7.78125 c -0.123662,0 -0.21875,0.095088 -0.21875,0.21875 v 11.5 c 0,0.123662 0.09509,0.21875 0.21875,0.21875 0.123662,0 0.21875,-0.09509 0.21875,-0.21875 V 8 c 0,-0.1236616 -0.09509,-0.21875 -0.21875,-0.21875 z"
         transform="matrix(1,0,0,1.0266513,0,-0.52553053)" /></g></g></svg>
